<svg width="32" height="32" fill="none" xmlns="http://www.w3.org/2000/svg"><path d="M8 8.306V6.107a2 2 0 01.197-.82 2.16 2.16 0 01.526-.69c.223-.195.486-.348.774-.45A2.54 2.54 0 0110.4 4h15.2a2.535 2.535 0 011.66.614c.446.392.71.926.74 1.492v7.695a2.141 2.141 0 01-.712 1.546A2.548 2.548 0 0125.6 16H24" stroke="#008BDC" stroke-width="1.5" stroke-linecap="round" stroke-linejoin="round"/><path d="M21.6 9.333H6.4A2.434 2.434 0 004 11.731v9.723c.009.633.218 1.517.667 1.965a2.435 2.435 0 001.687.712h2.4l.018 4.9c0 .2.2.3.4.3a.368.368 0 00.3-.1l3.882-5.2h8.2a2.434 2.434 0 001.688-.712c.448-.448.75-1.332.758-1.965v-9.623a2.43 2.43 0 00-2.4-2.398z" stroke="#008BDC" stroke-width="1.5"/><mask id="a" fill="#fff"><circle cx="8.667" cy="16.667" r="2"/></mask><path d="M8.667 16.667v4a4 4 0 004-4h-4zm0 0h-4a4 4 0 004 4v-4zm0 0v-4a4 4 0 00-4 4h4zm0 0h4a4 4 0 00-4-4v4z" fill="#008BDC" mask="url(#a)"/><mask id="b" fill="#fff"><circle cx="14" cy="16.667" r="2"/></mask><path d="M14 16.667v4a4 4 0 004-4h-4zm0 0h-4a4 4 0 004 4v-4zm0 0v-4a4 4 0 00-4 4h4zm0 0h4a4 4 0 00-4-4v4z" fill="#008BDC" mask="url(#b)"/><mask id="c" fill="#fff"><circle cx="19.333" cy="16.667" r="2"/></mask><path d="M19.333 16.667v4a4 4 0 004-4h-4zm0 0h-4a4 4 0 004 4v-4zm0 0v-4a4 4 0 00-4 4h4zm0 0h4a4 4 0 00-4-4v4z" fill="#008BDC" mask="url(#c)"/></svg>